<?xml version="1.0" encoding="UTF-8"?>
<svg id="Layer_1" xmlns="http://www.w3.org/2000/svg" version="1.1" viewBox="0 0 232 70">
  <!-- Generator: Adobe Illustrator 29.7.1, SVG Export Plug-In . SVG Version: 2.1.1 Build 8)  -->
  <g shape-rendering="crispEdges">
    <rect x="41.09" y="41.06" width="6.06" height="6.06"/>
    <rect x="41.09" y="35" width="6.06" height="6.06"/>
    <rect x="41.09" y="28.94" width="6.06" height="6.06"/>
    <rect x="35.03" y="35" width="6.06" height="6.06"/>
    <rect x="53.21" y="35" width="6.06" height="6.06"/>
    <rect x="47.15" y="41.06" width="6.06" height="6.06"/>
    <rect x="47.15" y="22.88" width="6.06" height="6.06"/>
    <rect x="53.21" y="22.88" width="6.06" height="6.06"/>
    <rect x="35.03" y="22.88" width="6.06" height="6.06"/>
    <rect x="28.97" y="16.82" width="6.06" height="6.06"/>
    <rect x="47.15" y="16.82" width="6.06" height="6.06"/>
    <rect x="28.97" y="22.88" width="6.06" height="6.06"/>
    <rect x="41.09" y="22.88" width="6.06" height="6.06"/>
    <rect x="28.97" y="28.94" width="6.06" height="6.06"/>
    <rect x="35.03" y="28.94" width="3.03" height="6.06"/>
    <rect x="28.97" y="41.06" width="6.06" height="6.06"/>
    <rect x="22.91" y="35" width="6.06" height="6.06"/>
    <rect x="35.03" y="41.06" width="6.06" height="6.06"/>
    <rect x="35.03" y="47.12" width="6.06" height="6.06"/>
    <rect x="28.97" y="35" width="6.06" height="6.06"/>
    <rect x="53.21" y="28.94" width="6.06" height="6.06"/>
    <rect x="47.15" y="28.94" width="3.03" height="6.06"/>
    <rect x="47.15" y="35" width="6.06" height="6.06"/>
    <rect x="53.21" y="41.06" width="6.06" height="6.06"/>
    <rect x="47.15" y="47.12" width="6.06" height="6.06"/>
    <rect x="59.27" y="35" width="6.06" height="6.06"/>
  </g>
  <g>
    <path d="M100.48,23.77c-1.26-.65-2.68-.97-4.27-.97h-9.36v25.2h4.14v-9.5h5.22c1.58,0,3.01-.32,4.27-.97s2.26-1.56,2.99-2.74c.73-1.18,1.1-2.56,1.1-4.14s-.37-2.96-1.1-4.14c-.73-1.18-1.73-2.09-2.99-2.74ZM99.85,32.9c-.38.64-.91,1.13-1.57,1.48-.66.35-1.42.52-2.29.52h-5v-8.5h5c.86,0,1.63.17,2.29.52.66.35,1.18.84,1.57,1.48.38.64.58,1.39.58,2.25s-.19,1.61-.58,2.25Z"/>
    <path d="M110.03,22.8c-.67,0-1.23.23-1.67.68-.44.46-.67,1.02-.67,1.69s.22,1.24.67,1.69c.44.46,1,.68,1.67.68s1.26-.23,1.69-.68.65-1.02.65-1.69-.22-1.24-.65-1.69c-.43-.46-1-.68-1.69-.68Z"/>
    <rect x="108.05" y="30.72" width="3.96" height="17.28"/>
    <polygon points="131.89 30.72 127.31 30.72 123.64 36.19 119.86 30.72 115.07 30.72 121.13 39.15 114.75 48 119.36 48 123.42 42.06 127.46 48 132.21 48 125.94 39.11 131.89 30.72"/>
    <path d="M136.83,22.8c-.67,0-1.23.23-1.67.68-.44.46-.67,1.02-.67,1.69s.22,1.24.67,1.69c.44.46,1,.68,1.67.68s1.26-.23,1.69-.68.65-1.02.65-1.69-.22-1.24-.65-1.69c-.43-.46-1-.68-1.69-.68Z"/>
    <rect x="134.85" y="30.72" width="3.96" height="17.28"/>
    <path d="M155.29,31.48c-1.24-.74-2.66-1.12-4.27-1.12s-3.16.4-4.52,1.19c-1.36.79-2.43,1.87-3.22,3.22-.79,1.36-1.19,2.89-1.19,4.59s.4,3.24,1.21,4.61c.8,1.37,1.9,2.44,3.28,3.22,1.38.78,2.93,1.17,4.66,1.17,1.34,0,2.62-.25,3.82-.76,1.2-.5,2.22-1.25,3.06-2.23l-2.52-2.56c-.53.6-1.17,1.06-1.93,1.37-.76.31-1.58.47-2.47.47-1.03,0-1.94-.22-2.74-.67-.79-.44-1.4-1.07-1.84-1.89-.21-.39-.36-.81-.47-1.26h12.89c.07-.36.13-.69.16-.99.04-.3.05-.59.05-.88,0-1.66-.35-3.13-1.06-4.43-.71-1.3-1.68-2.32-2.92-3.06ZM146.6,36.46c.41-.78.98-1.39,1.73-1.82.74-.43,1.62-.65,2.63-.65s1.77.19,2.43.58c.66.38,1.17.94,1.53,1.66.2.4.35.86.45,1.37h-9.18c.1-.41.24-.79.42-1.13Z"/>
    <polygon points="174.29 22.8 170.15 22.8 170.15 48 173 48 174.29 48 186.17 48 186.17 44.22 174.29 44.22 174.29 22.8"/>
    <path d="M201.94,32.66c-.5-.58-1.09-1.07-1.78-1.45-1.02-.56-2.19-.85-3.51-.85-1.56,0-2.97.4-4.23,1.21s-2.26,1.88-2.99,3.24-1.1,2.89-1.1,4.59.37,3.2,1.1,4.55c.73,1.36,1.73,2.43,2.99,3.22s2.67,1.19,4.23,1.19c1.32,0,2.5-.28,3.53-.85.69-.38,1.27-.86,1.76-1.42v1.91h3.96v-17.28h-3.96v1.94ZM200.84,43.14c-.9.98-2.08,1.48-3.55,1.48-.96,0-1.81-.22-2.54-.67-.73-.44-1.31-1.06-1.73-1.85-.42-.79-.63-1.7-.63-2.74s.21-1.94.63-2.74,1-1.41,1.73-1.85c.73-.44,1.58-.67,2.54-.67s1.84.22,2.57.67c.73.44,1.3,1.06,1.71,1.85.41.79.61,1.7.61,2.74,0,1.54-.45,2.8-1.35,3.78Z"/>
    <path d="M226.78,34.81c-.73-1.36-1.73-2.44-2.99-3.24-1.26-.8-2.67-1.21-4.23-1.21-1.3,0-2.46.28-3.49.85-.7.38-1.3.87-1.8,1.45v-10.58h-3.96v25.92h3.96v-1.91c.49.57,1.07,1.05,1.76,1.42,1.03.56,2.21.85,3.53.85,1.56,0,2.97-.4,4.23-1.19,1.26-.79,2.26-1.87,2.99-3.22.73-1.36,1.1-2.87,1.1-4.55s-.37-3.23-1.1-4.59ZM223.18,42.1c-.42.79-1,1.41-1.73,1.85-.73.44-1.58.67-2.54.67s-1.81-.22-2.56-.67c-.74-.44-1.32-1.06-1.73-1.85-.41-.79-.61-1.7-.61-2.74s.2-1.94.61-2.74.98-1.41,1.73-1.85c.74-.44,1.6-.67,2.56-.67s1.81.22,2.54.67c.73.44,1.31,1.06,1.73,1.85.42.79.63,1.7.63,2.74s-.21,1.94-.63,2.74Z"/>
  </g>
</svg>